<svg width="2498" height="394" viewBox="0 0 2498 394" fill="none" xmlns="http://www.w3.org/2000/svg">
<g clip-path="url(#clip0_2861_536)">
<rect width="394" height="2498" transform="matrix(0 1 -1 0 2498 0)" fill="white"/>
<path d="M164.234 220.183V173.918C164.234 171.043 165.016 168.855 166.578 167.355C168.141 165.824 170.375 165.058 173.281 165.058H189.359C198.797 165.058 205.969 167.777 210.875 173.215C215.812 178.652 218.281 186.59 218.281 197.027C218.281 207.465 215.812 215.418 210.875 220.887C205.969 226.324 198.797 229.043 189.359 229.043H173.281C170.375 229.043 168.141 228.293 166.578 226.793C165.016 225.262 164.234 223.058 164.234 220.183ZM179.75 216.715H186.969C192.312 216.715 196.219 215.137 198.688 211.98C201.188 208.793 202.438 203.808 202.438 197.027C202.438 190.246 201.188 185.277 198.688 182.121C196.188 178.933 192.281 177.34 186.969 177.34H179.75V216.715ZM224.797 206.824V201.293C224.797 196.574 225.766 192.465 227.703 188.965C229.672 185.433 232.422 182.683 235.953 180.715C239.484 178.746 243.594 177.762 248.281 177.762C252.719 177.762 256.625 178.715 260 180.621C263.406 182.496 266.078 185.074 268.016 188.355C269.953 191.605 270.922 195.308 270.922 199.465C270.922 202.308 270.359 204.324 269.234 205.512C268.141 206.668 266.234 207.246 263.516 207.246H240.125V209.074C240.156 212.043 241.109 214.433 242.984 216.246C244.859 218.058 247.484 218.965 250.859 218.965C251.766 218.965 252.594 218.918 253.344 218.824C254.125 218.73 254.828 218.59 255.453 218.402C256.109 218.183 256.719 217.949 257.281 217.699C257.844 217.449 258.359 217.137 258.828 216.762C259.984 216.043 260.922 215.48 261.641 215.074C262.359 214.637 263.297 214.418 264.453 214.418C265.984 214.418 267.203 214.887 268.109 215.824C269.047 216.73 269.516 217.98 269.516 219.574C269.516 220.918 269.109 222.168 268.297 223.324C267.516 224.449 266.422 225.465 265.016 226.371C263.297 227.59 261.125 228.543 258.5 229.23C255.875 229.918 252.969 230.262 249.781 230.262C242.062 230.262 235.969 228.183 231.5 224.027C227.031 219.871 224.797 214.137 224.797 206.824ZM240.125 198.621H256.719V198.48C256.719 195.605 255.984 193.308 254.516 191.59C253.047 189.871 251.078 189.012 248.609 189.012C245.953 189.012 243.875 189.887 242.375 191.637C240.875 193.355 240.125 195.637 240.125 198.48V198.621ZM277.672 219.105C277.672 217.543 278.172 216.293 279.172 215.355C280.203 214.387 281.531 213.902 283.156 213.902C284.031 213.902 284.875 214.074 285.688 214.418C286.5 214.73 287.516 215.262 288.734 216.012C290.734 217.262 292.531 218.168 294.125 218.73C295.719 219.262 297.375 219.527 299.094 219.527C300.531 219.527 301.766 219.355 302.797 219.012C303.828 218.637 304.625 218.105 305.188 217.418C305.75 216.73 306.031 215.933 306.031 215.027C306.031 214.183 305.797 213.433 305.328 212.777C304.859 212.121 304.125 211.543 303.125 211.043C302.156 210.543 300.906 210.121 299.375 209.777L292.391 208.277C287.547 207.246 283.984 205.558 281.703 203.215C279.453 200.871 278.328 197.793 278.328 193.98C278.328 190.73 279.203 187.902 280.953 185.496C282.734 183.058 285.234 181.168 288.453 179.824C291.672 178.449 295.453 177.762 299.797 177.762C302.141 177.762 304.391 177.98 306.547 178.418C308.734 178.855 310.719 179.512 312.5 180.387C314.531 181.324 316.078 182.465 317.141 183.808C318.234 185.152 318.781 186.605 318.781 188.168C318.781 189.699 318.266 190.918 317.234 191.824C316.234 192.699 314.922 193.137 313.297 193.137C312.547 193.137 311.734 193.012 310.859 192.762C310.016 192.48 308.953 191.98 307.672 191.262C305.797 190.168 304.203 189.418 302.891 189.012C301.578 188.574 300.281 188.355 299 188.355C297.031 188.355 295.484 188.793 294.359 189.668C293.266 190.543 292.719 191.683 292.719 193.09C292.719 194.308 293.172 195.277 294.078 195.996C294.984 196.715 296.391 197.277 298.297 197.683L307.109 199.465C310.141 200.09 312.625 201.027 314.562 202.277C316.531 203.527 318 205.105 318.969 207.012C319.938 208.887 320.422 211.105 320.422 213.668C320.422 217.074 319.531 220.027 317.75 222.527C316 224.996 313.469 226.902 310.156 228.246C306.875 229.59 302.906 230.262 298.25 230.262C295.438 230.262 292.781 229.996 290.281 229.465C287.812 228.933 285.641 228.199 283.766 227.262C281.797 226.262 280.281 225.058 279.219 223.652C278.188 222.246 277.672 220.73 277.672 219.105ZM332.797 215.59V191.027H330.969C328.969 191.027 327.422 190.527 326.328 189.527C325.266 188.496 324.734 187.09 324.734 185.308C324.734 183.496 325.266 182.09 326.328 181.09C327.422 180.09 328.969 179.59 330.969 179.59H333.172V174.152C333.172 171.558 333.797 169.574 335.047 168.199C336.328 166.824 338.125 166.137 340.438 166.137C345.281 166.137 347.703 168.808 347.703 174.152V179.59H351.641C353.641 179.59 355.172 180.09 356.234 181.09C357.328 182.09 357.875 183.496 357.875 185.308C357.875 187.09 357.328 188.496 356.234 189.527C355.172 190.527 353.641 191.027 351.641 191.027H347.891V213.293C347.891 215.293 348.203 216.715 348.828 217.558C349.484 218.402 350.609 218.824 352.203 218.824C352.859 218.824 353.422 218.793 353.891 218.73C354.391 218.637 354.969 218.59 355.625 218.59C356.781 218.59 357.734 218.98 358.484 219.762C359.234 220.512 359.609 221.543 359.609 222.855C359.609 223.918 359.375 224.887 358.906 225.762C358.438 226.637 357.719 227.402 356.75 228.058C355.75 228.746 354.516 229.277 353.047 229.652C351.578 230.027 349.891 230.215 347.984 230.215C342.797 230.215 338.969 229.043 336.5 226.699C334.031 224.355 332.797 220.652 332.797 215.59ZM366.688 166.183C366.688 164.058 367.453 162.308 368.984 160.933C370.516 159.558 372.453 158.871 374.797 158.871C377.172 158.871 379.109 159.558 380.609 160.933C382.141 162.308 382.906 164.058 382.906 166.183C382.906 168.34 382.141 170.105 380.609 171.48C379.109 172.855 377.172 173.543 374.797 173.543C372.453 173.543 370.516 172.855 368.984 171.48C367.453 170.105 366.688 168.34 366.688 166.183ZM382.344 221.262C382.344 223.949 381.688 225.996 380.375 227.402C379.062 228.808 377.203 229.512 374.797 229.512C372.422 229.512 370.578 228.808 369.266 227.402C367.953 225.996 367.297 223.949 367.297 221.262V186.808C367.297 184.121 367.953 182.074 369.266 180.668C370.578 179.262 372.422 178.558 374.797 178.558C377.203 178.558 379.062 179.262 380.375 180.668C381.688 182.074 382.344 184.121 382.344 186.808V221.262ZM440.234 221.308C440.234 226.777 437.719 229.512 432.688 229.512C427.656 229.512 425.141 226.762 425.141 221.262V199.887C425.141 197.012 424.453 194.762 423.078 193.137C421.734 191.512 419.828 190.699 417.359 190.699C415.609 190.699 414.078 191.137 412.766 192.012C411.453 192.855 410.438 194.074 409.719 195.668C409 197.23 408.641 199.121 408.641 201.34V221.262C408.641 226.762 406.141 229.512 401.141 229.512C398.703 229.512 396.828 228.808 395.516 227.402C394.234 225.965 393.594 223.918 393.594 221.262V186.527C393.594 184.058 394.25 182.121 395.562 180.715C396.875 179.277 398.672 178.558 400.953 178.558C405.578 178.558 408 180.98 408.219 185.824V187.652H408.969C409.594 185.746 410.609 184.09 412.016 182.683C413.422 181.277 415.125 180.183 417.125 179.402C419.125 178.621 421.312 178.23 423.688 178.23C428.969 178.23 433.047 179.777 435.922 182.871C438.797 185.933 440.234 190.293 440.234 195.949V221.308ZM463.203 213.387C463.203 215.137 463.844 216.574 465.125 217.699C466.438 218.793 468.109 219.34 470.141 219.34C471.609 219.34 472.938 219.043 474.125 218.449C475.312 217.855 476.25 217.043 476.938 216.012C477.656 214.98 478.016 213.84 478.016 212.59V207.715H470.328C468.141 207.715 466.406 208.215 465.125 209.215C463.844 210.215 463.203 211.605 463.203 213.387ZM477.969 222.902C477.188 224.308 476.141 225.512 474.828 226.512C473.547 227.512 472.047 228.277 470.328 228.808C468.641 229.34 466.797 229.605 464.797 229.605C459.922 229.605 455.969 228.215 452.938 225.433C449.906 222.652 448.391 218.996 448.391 214.465C448.391 209.777 450.031 206.105 453.312 203.449C456.625 200.762 461.172 199.402 466.953 199.371H478.016V195.762C478.016 193.637 477.359 192.027 476.047 190.933C474.734 189.84 472.875 189.293 470.469 189.293C468.75 189.293 467.203 189.605 465.828 190.23C464.484 190.855 463.141 191.652 461.797 192.621C461.047 193.121 460.25 193.512 459.406 193.793C458.562 194.043 457.547 194.168 456.359 194.168C454.766 194.168 453.5 193.683 452.562 192.715C451.625 191.746 451.156 190.543 451.156 189.105C451.156 187.574 451.688 186.09 452.75 184.652C453.844 183.183 455.547 181.902 457.859 180.808C459.516 179.996 461.469 179.371 463.719 178.933C465.969 178.465 468.547 178.23 471.453 178.23C478.359 178.23 483.688 179.777 487.438 182.871C491.188 185.933 493.062 190.293 493.062 195.949V221.543C493.062 224.105 492.422 226.074 491.141 227.449C489.891 228.824 488.094 229.512 485.75 229.512C483.844 229.512 482.25 229.027 480.969 228.058C479.719 227.09 478.953 225.699 478.672 223.887V222.902C478.641 222.902 478.516 222.902 478.297 222.902C478.078 222.902 477.969 222.902 477.969 222.902ZM506.984 215.59V191.027H505.156C503.156 191.027 501.609 190.527 500.516 189.527C499.453 188.496 498.922 187.09 498.922 185.308C498.922 183.496 499.453 182.09 500.516 181.09C501.609 180.09 503.156 179.59 505.156 179.59H507.359V174.152C507.359 171.558 507.984 169.574 509.234 168.199C510.516 166.824 512.312 166.137 514.625 166.137C519.469 166.137 521.891 168.808 521.891 174.152V179.59H525.828C527.828 179.59 529.359 180.09 530.422 181.09C531.516 182.09 532.062 183.496 532.062 185.308C532.062 187.09 531.516 188.496 530.422 189.527C529.359 190.527 527.828 191.027 525.828 191.027H522.078V213.293C522.078 215.293 522.391 216.715 523.016 217.558C523.672 218.402 524.797 218.824 526.391 218.824C527.047 218.824 527.609 218.793 528.078 218.73C528.578 218.637 529.156 218.59 529.812 218.59C530.969 218.59 531.922 218.98 532.672 219.762C533.422 220.512 533.797 221.543 533.797 222.855C533.797 223.918 533.562 224.887 533.094 225.762C532.625 226.637 531.906 227.402 530.938 228.058C529.938 228.746 528.703 229.277 527.234 229.652C525.766 230.027 524.078 230.215 522.172 230.215C516.984 230.215 513.156 229.043 510.688 226.699C508.219 224.355 506.984 220.652 506.984 215.59ZM540.875 166.183C540.875 164.058 541.641 162.308 543.172 160.933C544.703 159.558 546.641 158.871 548.984 158.871C551.359 158.871 553.297 159.558 554.797 160.933C556.328 162.308 557.094 164.058 557.094 166.183C557.094 168.34 556.328 170.105 554.797 171.48C553.297 172.855 551.359 173.543 548.984 173.543C546.641 173.543 544.703 172.855 543.172 171.48C541.641 170.105 540.875 168.34 540.875 166.183ZM556.531 221.262C556.531 223.949 555.875 225.996 554.562 227.402C553.25 228.808 551.391 229.512 548.984 229.512C546.609 229.512 544.766 228.808 543.453 227.402C542.141 225.996 541.484 223.949 541.484 221.262V186.808C541.484 184.121 542.141 182.074 543.453 180.668C544.766 179.262 546.609 178.558 548.984 178.558C551.391 178.558 553.25 179.262 554.562 180.668C555.875 182.074 556.531 184.121 556.531 186.808V221.262ZM589.672 177.762C594.484 177.762 598.688 178.715 602.281 180.621C605.906 182.527 608.719 185.246 610.719 188.777C612.719 192.308 613.719 196.512 613.719 201.387V206.262C613.719 211.355 612.719 215.699 610.719 219.293C608.719 222.855 605.906 225.574 602.281 227.449C598.688 229.324 594.484 230.262 589.672 230.262C584.859 230.262 580.641 229.324 577.016 227.449C573.391 225.574 570.578 222.855 568.578 219.293C566.578 215.73 565.578 211.402 565.578 206.308V201.48C565.578 196.574 566.578 192.355 568.578 188.824C570.578 185.262 573.391 182.527 577.016 180.621C580.641 178.715 584.859 177.762 589.672 177.762ZM589.672 189.012C587.891 189.012 586.359 189.512 585.078 190.512C583.797 191.48 582.812 192.887 582.125 194.73C581.438 196.543 581.094 198.762 581.094 201.387V206.59C581.094 210.496 581.859 213.543 583.391 215.73C584.922 217.918 587.016 219.012 589.672 219.012C591.453 219.012 592.969 218.527 594.219 217.558C595.5 216.558 596.469 215.137 597.125 213.293C597.812 211.418 598.156 209.183 598.156 206.59V201.387C598.156 198.762 597.812 196.543 597.125 194.73C596.469 192.887 595.5 191.48 594.219 190.512C592.969 189.512 591.453 189.012 589.672 189.012ZM668.797 221.308C668.797 226.777 666.281 229.512 661.25 229.512C656.219 229.512 653.703 226.762 653.703 221.262V199.887C653.703 197.012 653.016 194.762 651.641 193.137C650.297 191.512 648.391 190.699 645.922 190.699C644.172 190.699 642.641 191.137 641.328 192.012C640.016 192.855 639 194.074 638.281 195.668C637.562 197.23 637.203 199.121 637.203 201.34V221.262C637.203 226.762 634.703 229.512 629.703 229.512C627.266 229.512 625.391 228.808 624.078 227.402C622.797 225.965 622.156 223.918 622.156 221.262V186.527C622.156 184.058 622.812 182.121 624.125 180.715C625.438 179.277 627.234 178.558 629.516 178.558C634.141 178.558 636.562 180.98 636.781 185.824V187.652H637.531C638.156 185.746 639.172 184.09 640.578 182.683C641.984 181.277 643.688 180.183 645.688 179.402C647.688 178.621 649.875 178.23 652.25 178.23C657.531 178.23 661.609 179.777 664.484 182.871C667.359 185.933 668.797 190.293 668.797 195.949V221.308ZM717.266 221.262C717.266 226.762 714.766 229.512 709.766 229.512C707.359 229.512 705.5 228.808 704.188 227.402C702.875 225.965 702.219 223.918 702.219 221.262V190.558H700.25C696.094 190.558 694.016 188.668 694.016 184.887C694.016 183.074 694.547 181.668 695.609 180.668C696.703 179.637 698.25 179.121 700.25 179.121H702.219V175.699C702.219 170.105 703.609 166.074 706.391 163.605C709.172 161.105 713.297 159.855 718.766 159.855C720.453 159.855 721.938 159.996 723.219 160.277C724.531 160.558 725.625 160.98 726.5 161.543C728.375 162.668 729.312 164.183 729.312 166.09C729.312 167.402 728.922 168.465 728.141 169.277C727.391 170.058 726.406 170.449 725.188 170.449C724.469 170.449 723.844 170.418 723.312 170.355C722.781 170.293 722.141 170.262 721.391 170.262C719.953 170.262 718.844 170.637 718.062 171.387C717.281 172.137 716.891 173.418 716.891 175.23V179.121H721.438C723.438 179.121 724.969 179.637 726.031 180.668C727.125 181.668 727.672 183.058 727.672 184.84C727.672 186.621 727.125 188.027 726.031 189.058C724.969 190.058 723.438 190.558 721.438 190.558H717.266V221.262ZM755.422 177.762C760.234 177.762 764.438 178.715 768.031 180.621C771.656 182.527 774.469 185.246 776.469 188.777C778.469 192.308 779.469 196.512 779.469 201.387V206.262C779.469 211.355 778.469 215.699 776.469 219.293C774.469 222.855 771.656 225.574 768.031 227.449C764.438 229.324 760.234 230.262 755.422 230.262C750.609 230.262 746.391 229.324 742.766 227.449C739.141 225.574 736.328 222.855 734.328 219.293C732.328 215.73 731.328 211.402 731.328 206.308V201.48C731.328 196.574 732.328 192.355 734.328 188.824C736.328 185.262 739.141 182.527 742.766 180.621C746.391 178.715 750.609 177.762 755.422 177.762ZM755.422 189.012C753.641 189.012 752.109 189.512 750.828 190.512C749.547 191.48 748.562 192.887 747.875 194.73C747.188 196.543 746.844 198.762 746.844 201.387V206.59C746.844 210.496 747.609 213.543 749.141 215.73C750.672 217.918 752.766 219.012 755.422 219.012C757.203 219.012 758.719 218.527 759.969 217.558C761.25 216.558 762.219 215.137 762.875 213.293C763.562 211.418 763.906 209.183 763.906 206.59V201.387C763.906 198.762 763.562 196.543 762.875 194.73C762.219 192.887 761.25 191.48 759.969 190.512C758.719 189.512 757.203 189.012 755.422 189.012ZM803.094 221.262C803.094 223.887 802.422 225.918 801.078 227.355C799.766 228.793 797.875 229.512 795.406 229.512C792.938 229.512 791.094 228.793 789.875 227.355C788.656 225.918 788.047 223.887 788.047 221.262V186.808C788.047 184.152 788.672 182.121 789.922 180.715C791.203 179.277 793.047 178.558 795.453 178.558C797.641 178.558 799.344 179.152 800.562 180.34C801.781 181.527 802.469 183.262 802.625 185.543V186.246H803.328C803.891 184.527 804.656 183.074 805.625 181.887C806.594 180.668 807.734 179.762 809.047 179.168C810.359 178.543 811.812 178.23 813.406 178.23C815.469 178.23 817.094 178.793 818.281 179.918C819.531 181.074 820.156 182.699 820.156 184.793C820.156 185.824 820 186.73 819.688 187.512C819.375 188.262 818.922 188.887 818.328 189.387C817.766 189.855 817.047 190.23 816.172 190.512C815.328 190.762 814.344 190.902 813.219 190.933C810.969 190.996 809.078 191.465 807.547 192.34C806.047 193.183 804.922 194.418 804.172 196.043C803.453 197.637 803.094 199.637 803.094 202.043V221.262ZM860.234 206.637C860.234 208.949 860.609 210.965 861.359 212.683C862.109 214.371 863.172 215.683 864.547 216.621C865.922 217.527 867.516 217.98 869.328 217.98C871.141 217.98 872.703 217.512 874.016 216.574C875.328 215.637 876.312 214.277 876.969 212.496C877.656 210.683 878 208.512 878 205.98V202.137C878 199.574 877.656 197.387 876.969 195.574C876.281 193.73 875.281 192.324 873.969 191.355C872.656 190.387 871.078 189.902 869.234 189.902C867.391 189.902 865.797 190.387 864.453 191.355C863.109 192.293 862.062 193.637 861.312 195.387C860.594 197.137 860.234 199.23 860.234 201.668V206.637ZM875.188 229.652C872.875 229.652 870.75 229.324 868.812 228.668C866.906 227.98 865.266 227.012 863.891 225.762C862.516 224.48 861.516 222.98 860.891 221.262H860.141V222.48C860.141 224.73 859.453 226.48 858.078 227.73C856.734 228.949 854.938 229.558 852.688 229.558C850.281 229.558 848.438 228.855 847.156 227.449C845.875 226.012 845.234 223.949 845.234 221.262V169.558C845.234 166.902 845.875 164.871 847.156 163.465C848.469 162.027 850.328 161.308 852.734 161.308C857.734 161.308 860.234 164.058 860.234 169.558V186.762H860.984C861.422 185.48 862.078 184.324 862.953 183.293C863.859 182.23 864.938 181.324 866.188 180.574C867.438 179.824 868.844 179.262 870.406 178.887C871.969 178.48 873.625 178.277 875.375 178.277C879.156 178.277 882.391 179.183 885.078 180.996C887.797 182.777 889.891 185.371 891.359 188.777C892.828 192.183 893.562 196.277 893.562 201.058V206.824C893.562 211.605 892.828 215.699 891.359 219.105C889.891 222.512 887.781 225.121 885.031 226.933C882.312 228.746 879.031 229.652 875.188 229.652ZM900.641 206.824V201.293C900.641 196.574 901.609 192.465 903.547 188.965C905.516 185.433 908.266 182.683 911.797 180.715C915.328 178.746 919.438 177.762 924.125 177.762C928.562 177.762 932.469 178.715 935.844 180.621C939.25 182.496 941.922 185.074 943.859 188.355C945.797 191.605 946.766 195.308 946.766 199.465C946.766 202.308 946.203 204.324 945.078 205.512C943.984 206.668 942.078 207.246 939.359 207.246H915.969V209.074C916 212.043 916.953 214.433 918.828 216.246C920.703 218.058 923.328 218.965 926.703 218.965C927.609 218.965 928.438 218.918 929.188 218.824C929.969 218.73 930.672 218.59 931.297 218.402C931.953 218.183 932.562 217.949 933.125 217.699C933.688 217.449 934.203 217.137 934.672 216.762C935.828 216.043 936.766 215.48 937.484 215.074C938.203 214.637 939.141 214.418 940.297 214.418C941.828 214.418 943.047 214.887 943.953 215.824C944.891 216.73 945.359 217.98 945.359 219.574C945.359 220.918 944.953 222.168 944.141 223.324C943.359 224.449 942.266 225.465 940.859 226.371C939.141 227.59 936.969 228.543 934.344 229.23C931.719 229.918 928.812 230.262 925.625 230.262C917.906 230.262 911.812 228.183 907.344 224.027C902.875 219.871 900.641 214.137 900.641 206.824ZM915.969 198.621H932.562V198.48C932.562 195.605 931.828 193.308 930.359 191.59C928.891 189.871 926.922 189.012 924.453 189.012C921.797 189.012 919.719 189.887 918.219 191.637C916.719 193.355 915.969 195.637 915.969 198.48V198.621ZM953.516 219.105C953.516 217.543 954.016 216.293 955.016 215.355C956.047 214.387 957.375 213.902 959 213.902C959.875 213.902 960.719 214.074 961.531 214.418C962.344 214.73 963.359 215.262 964.578 216.012C966.578 217.262 968.375 218.168 969.969 218.73C971.562 219.262 973.219 219.527 974.938 219.527C976.375 219.527 977.609 219.355 978.641 219.012C979.672 218.637 980.469 218.105 981.031 217.418C981.594 216.73 981.875 215.933 981.875 215.027C981.875 214.183 981.641 213.433 981.172 212.777C980.703 212.121 979.969 211.543 978.969 211.043C978 210.543 976.75 210.121 975.219 209.777L968.234 208.277C963.391 207.246 959.828 205.558 957.547 203.215C955.297 200.871 954.172 197.793 954.172 193.98C954.172 190.73 955.047 187.902 956.797 185.496C958.578 183.058 961.078 181.168 964.297 179.824C967.516 178.449 971.297 177.762 975.641 177.762C977.984 177.762 980.234 177.98 982.391 178.418C984.578 178.855 986.562 179.512 988.344 180.387C990.375 181.324 991.922 182.465 992.984 183.808C994.078 185.152 994.625 186.605 994.625 188.168C994.625 189.699 994.109 190.918 993.078 191.824C992.078 192.699 990.766 193.137 989.141 193.137C988.391 193.137 987.578 193.012 986.703 192.762C985.859 192.48 984.797 191.98 983.516 191.262C981.641 190.168 980.047 189.418 978.734 189.012C977.422 188.574 976.125 188.355 974.844 188.355C972.875 188.355 971.328 188.793 970.203 189.668C969.109 190.543 968.562 191.683 968.562 193.09C968.562 194.308 969.016 195.277 969.922 195.996C970.828 196.715 972.234 197.277 974.141 197.683L982.953 199.465C985.984 200.09 988.469 201.027 990.406 202.277C992.375 203.527 993.844 205.105 994.812 207.012C995.781 208.887 996.266 211.105 996.266 213.668C996.266 217.074 995.375 220.027 993.594 222.527C991.844 224.996 989.312 226.902 986 228.246C982.719 229.59 978.75 230.262 974.094 230.262C971.281 230.262 968.625 229.996 966.125 229.465C963.656 228.933 961.484 228.199 959.609 227.262C957.641 226.262 956.125 225.058 955.062 223.652C954.031 222.246 953.516 220.73 953.516 219.105ZM1008.64 215.59V191.027H1006.81C1004.81 191.027 1003.27 190.527 1002.17 189.527C1001.11 188.496 1000.58 187.09 1000.58 185.308C1000.58 183.496 1001.11 182.09 1002.17 181.09C1003.27 180.09 1004.81 179.59 1006.81 179.59H1009.02V174.152C1009.02 171.558 1009.64 169.574 1010.89 168.199C1012.17 166.824 1013.97 166.137 1016.28 166.137C1021.12 166.137 1023.55 168.808 1023.55 174.152V179.59H1027.48C1029.48 179.59 1031.02 180.09 1032.08 181.09C1033.17 182.09 1033.72 183.496 1033.72 185.308C1033.72 187.09 1033.17 188.496 1032.08 189.527C1031.02 190.527 1029.48 191.027 1027.48 191.027H1023.73V213.293C1023.73 215.293 1024.05 216.715 1024.67 217.558C1025.33 218.402 1026.45 218.824 1028.05 218.824C1028.7 218.824 1029.27 218.793 1029.73 218.73C1030.23 218.637 1030.81 218.59 1031.47 218.59C1032.62 218.59 1033.58 218.98 1034.33 219.762C1035.08 220.512 1035.45 221.543 1035.45 222.855C1035.45 223.918 1035.22 224.887 1034.75 225.762C1034.28 226.637 1033.56 227.402 1032.59 228.058C1031.59 228.746 1030.36 229.277 1028.89 229.652C1027.42 230.027 1025.73 230.215 1023.83 230.215C1018.64 230.215 1014.81 229.043 1012.34 226.699C1009.88 224.355 1008.64 220.652 1008.64 215.59ZM1495.11 206.824V201.293C1495.11 196.574 1496.08 192.465 1498.02 188.965C1499.98 185.433 1502.73 182.683 1506.27 180.715C1509.8 178.746 1513.91 177.762 1518.59 177.762C1523.03 177.762 1526.94 178.715 1530.31 180.621C1533.72 182.496 1536.39 185.074 1538.33 188.355C1540.27 191.605 1541.23 195.308 1541.23 199.465C1541.23 202.308 1540.67 204.324 1539.55 205.512C1538.45 206.668 1536.55 207.246 1533.83 207.246H1510.44V209.074C1510.47 212.043 1511.42 214.433 1513.3 216.246C1515.17 218.058 1517.8 218.965 1521.17 218.965C1522.08 218.965 1522.91 218.918 1523.66 218.824C1524.44 218.73 1525.14 218.59 1525.77 218.402C1526.42 218.183 1527.03 217.949 1527.59 217.699C1528.16 217.449 1528.67 217.137 1529.14 216.762C1530.3 216.043 1531.23 215.48 1531.95 215.074C1532.67 214.637 1533.61 214.418 1534.77 214.418C1536.3 214.418 1537.52 214.887 1538.42 215.824C1539.36 216.73 1539.83 217.98 1539.83 219.574C1539.83 220.918 1539.42 222.168 1538.61 223.324C1537.83 224.449 1536.73 225.465 1535.33 226.371C1533.61 227.59 1531.44 228.543 1528.81 229.23C1526.19 229.918 1523.28 230.262 1520.09 230.262C1512.38 230.262 1506.28 228.183 1501.81 224.027C1497.34 219.871 1495.11 214.137 1495.11 206.824ZM1510.44 198.621H1527.03V198.48C1527.03 195.605 1526.3 193.308 1524.83 191.59C1523.36 189.871 1521.39 189.012 1518.92 189.012C1516.27 189.012 1514.19 189.887 1512.69 191.637C1511.19 193.355 1510.44 195.637 1510.44 198.48V198.621ZM1547.38 222.621C1547.38 221.683 1547.53 220.777 1547.84 219.902C1548.19 218.996 1548.66 218.246 1549.25 217.652L1561.11 204.012L1549.2 190.605C1547.86 189.23 1547.19 187.543 1547.19 185.543C1547.19 183.543 1547.84 181.902 1549.16 180.621C1550.5 179.308 1552.09 178.652 1553.94 178.652C1555.66 178.652 1557.09 179.058 1558.25 179.871C1559.41 180.683 1560.64 182.074 1561.95 184.043L1569.41 195.387H1570.11L1577.61 184.09C1578.92 182.09 1580.14 180.683 1581.27 179.871C1582.42 179.058 1583.86 178.652 1585.58 178.652C1587.45 178.652 1589.05 179.308 1590.36 180.621C1591.67 181.902 1592.33 183.558 1592.33 185.59C1592.33 187.558 1591.67 189.199 1590.36 190.512L1578.5 204.012L1589.84 217.043C1590.72 217.918 1591.36 218.793 1591.77 219.668C1592.17 220.543 1592.38 221.512 1592.38 222.574C1592.38 224.574 1591.72 226.23 1590.41 227.543C1589.09 228.855 1587.53 229.512 1585.72 229.512C1583.97 229.512 1582.48 229.105 1581.27 228.293C1580.08 227.48 1578.84 226.09 1577.56 224.121L1570.11 212.777H1569.41L1562.05 224.074C1560.77 226.074 1559.53 227.48 1558.34 228.293C1557.19 229.105 1555.73 229.512 1553.98 229.512C1552.2 229.512 1550.66 228.871 1549.34 227.59C1548.03 226.277 1547.38 224.621 1547.38 222.621ZM1616.89 206.683C1616.89 208.965 1617.27 210.949 1618.02 212.637C1618.77 214.324 1619.81 215.637 1621.16 216.574C1622.5 217.48 1624.08 217.933 1625.89 217.933C1627.73 217.933 1629.31 217.465 1630.62 216.527C1631.94 215.558 1632.94 214.183 1633.62 212.402C1634.31 210.59 1634.66 208.418 1634.66 205.887V201.949C1634.66 199.387 1634.31 197.215 1633.62 195.433C1632.94 193.652 1631.92 192.293 1630.58 191.355C1629.27 190.387 1627.67 189.902 1625.8 189.902C1623.95 189.902 1622.36 190.371 1621.02 191.308C1619.7 192.215 1618.69 193.527 1617.97 195.246C1617.25 196.965 1616.89 199.043 1616.89 201.48V206.683ZM1616.89 238.277C1616.89 243.777 1614.39 246.527 1609.39 246.527C1604.39 246.527 1601.89 243.777 1601.89 238.277V186.808C1601.89 181.308 1604.36 178.558 1609.3 178.558C1613.92 178.558 1616.42 180.871 1616.8 185.496C1616.8 185.746 1616.8 185.996 1616.8 186.246C1616.8 186.465 1616.8 186.683 1616.8 186.902H1617.55C1618.05 185.59 1618.75 184.402 1619.66 183.34C1620.56 182.277 1621.62 181.371 1622.84 180.621C1624.09 179.84 1625.47 179.246 1626.97 178.84C1628.5 178.433 1630.12 178.23 1631.84 178.23C1635.72 178.23 1639.02 179.137 1641.73 180.949C1644.45 182.73 1646.53 185.324 1647.97 188.73C1649.44 192.105 1650.17 196.183 1650.17 200.965V206.73C1650.17 211.543 1649.44 215.652 1647.97 219.058C1646.5 222.465 1644.39 225.074 1641.64 226.887C1638.89 228.699 1635.59 229.605 1631.75 229.605C1629.5 229.605 1627.44 229.277 1625.56 228.621C1623.69 227.965 1622.08 227.012 1620.73 225.762C1619.39 224.512 1618.36 222.996 1617.64 221.215H1616.89V238.277ZM1657.2 206.824V201.293C1657.2 196.574 1658.17 192.465 1660.11 188.965C1662.08 185.433 1664.83 182.683 1668.36 180.715C1671.89 178.746 1676 177.762 1680.69 177.762C1685.12 177.762 1689.03 178.715 1692.41 180.621C1695.81 182.496 1698.48 185.074 1700.42 188.355C1702.36 191.605 1703.33 195.308 1703.33 199.465C1703.33 202.308 1702.77 204.324 1701.64 205.512C1700.55 206.668 1698.64 207.246 1695.92 207.246H1672.53V209.074C1672.56 212.043 1673.52 214.433 1675.39 216.246C1677.27 218.058 1679.89 218.965 1683.27 218.965C1684.17 218.965 1685 218.918 1685.75 218.824C1686.53 218.73 1687.23 218.59 1687.86 218.402C1688.52 218.183 1689.12 217.949 1689.69 217.699C1690.25 217.449 1690.77 217.137 1691.23 216.762C1692.39 216.043 1693.33 215.48 1694.05 215.074C1694.77 214.637 1695.7 214.418 1696.86 214.418C1698.39 214.418 1699.61 214.887 1700.52 215.824C1701.45 216.73 1701.92 217.98 1701.92 219.574C1701.92 220.918 1701.52 222.168 1700.7 223.324C1699.92 224.449 1698.83 225.465 1697.42 226.371C1695.7 227.59 1693.53 228.543 1690.91 229.23C1688.28 229.918 1685.38 230.262 1682.19 230.262C1674.47 230.262 1668.38 228.183 1663.91 224.027C1659.44 219.871 1657.2 214.137 1657.2 206.824ZM1672.53 198.621H1689.12V198.48C1689.12 195.605 1688.39 193.308 1686.92 191.59C1685.45 189.871 1683.48 189.012 1681.02 189.012C1678.36 189.012 1676.28 189.887 1674.78 191.637C1673.28 193.355 1672.53 195.637 1672.53 198.48V198.621ZM1727.19 221.262C1727.19 223.887 1726.52 225.918 1725.17 227.355C1723.86 228.793 1721.97 229.512 1719.5 229.512C1717.03 229.512 1715.19 228.793 1713.97 227.355C1712.75 225.918 1712.14 223.887 1712.14 221.262V186.808C1712.14 184.152 1712.77 182.121 1714.02 180.715C1715.3 179.277 1717.14 178.558 1719.55 178.558C1721.73 178.558 1723.44 179.152 1724.66 180.34C1725.88 181.527 1726.56 183.262 1726.72 185.543V186.246H1727.42C1727.98 184.527 1728.75 183.074 1729.72 181.887C1730.69 180.668 1731.83 179.762 1733.14 179.168C1734.45 178.543 1735.91 178.23 1737.5 178.23C1739.56 178.23 1741.19 178.793 1742.38 179.918C1743.62 181.074 1744.25 182.699 1744.25 184.793C1744.25 185.824 1744.09 186.73 1743.78 187.512C1743.47 188.262 1743.02 188.887 1742.42 189.387C1741.86 189.855 1741.14 190.23 1740.27 190.512C1739.42 190.762 1738.44 190.902 1737.31 190.933C1735.06 190.996 1733.17 191.465 1731.64 192.34C1730.14 193.183 1729.02 194.418 1728.27 196.043C1727.55 197.637 1727.19 199.637 1727.19 202.043V221.262ZM1751 166.183C1751 164.058 1751.77 162.308 1753.3 160.933C1754.83 159.558 1756.77 158.871 1759.11 158.871C1761.48 158.871 1763.42 159.558 1764.92 160.933C1766.45 162.308 1767.22 164.058 1767.22 166.183C1767.22 168.34 1766.45 170.105 1764.92 171.48C1763.42 172.855 1761.48 173.543 1759.11 173.543C1756.77 173.543 1754.83 172.855 1753.3 171.48C1751.77 170.105 1751 168.34 1751 166.183ZM1766.66 221.262C1766.66 223.949 1766 225.996 1764.69 227.402C1763.38 228.808 1761.52 229.512 1759.11 229.512C1756.73 229.512 1754.89 228.808 1753.58 227.402C1752.27 225.996 1751.61 223.949 1751.61 221.262V186.808C1751.61 184.121 1752.27 182.074 1753.58 180.668C1754.89 179.262 1756.73 178.558 1759.11 178.558C1761.52 178.558 1763.38 179.262 1764.69 180.668C1766 182.074 1766.66 184.121 1766.66 186.808V221.262ZM1775.98 206.824V201.293C1775.98 196.574 1776.95 192.465 1778.89 188.965C1780.86 185.433 1783.61 182.683 1787.14 180.715C1790.67 178.746 1794.78 177.762 1799.47 177.762C1803.91 177.762 1807.81 178.715 1811.19 180.621C1814.59 182.496 1817.27 185.074 1819.2 188.355C1821.14 191.605 1822.11 195.308 1822.11 199.465C1822.11 202.308 1821.55 204.324 1820.42 205.512C1819.33 206.668 1817.42 207.246 1814.7 207.246H1791.31V209.074C1791.34 212.043 1792.3 214.433 1794.17 216.246C1796.05 218.058 1798.67 218.965 1802.05 218.965C1802.95 218.965 1803.78 218.918 1804.53 218.824C1805.31 218.73 1806.02 218.59 1806.64 218.402C1807.3 218.183 1807.91 217.949 1808.47 217.699C1809.03 217.449 1809.55 217.137 1810.02 216.762C1811.17 216.043 1812.11 215.48 1812.83 215.074C1813.55 214.637 1814.48 214.418 1815.64 214.418C1817.17 214.418 1818.39 214.887 1819.3 215.824C1820.23 216.73 1820.7 217.98 1820.7 219.574C1820.7 220.918 1820.3 222.168 1819.48 223.324C1818.7 224.449 1817.61 225.465 1816.2 226.371C1814.48 227.59 1812.31 228.543 1809.69 229.23C1807.06 229.918 1804.16 230.262 1800.97 230.262C1793.25 230.262 1787.16 228.183 1782.69 224.027C1778.22 219.871 1775.98 214.137 1775.98 206.824ZM1791.31 198.621H1807.91V198.48C1807.91 195.605 1807.17 193.308 1805.7 191.59C1804.23 189.871 1802.27 189.012 1799.8 189.012C1797.14 189.012 1795.06 189.887 1793.56 191.637C1792.06 193.355 1791.31 195.637 1791.31 198.48V198.621ZM1877.42 221.308C1877.42 226.777 1874.91 229.512 1869.88 229.512C1864.84 229.512 1862.33 226.762 1862.33 221.262V199.887C1862.33 197.012 1861.64 194.762 1860.27 193.137C1858.92 191.512 1857.02 190.699 1854.55 190.699C1852.8 190.699 1851.27 191.137 1849.95 192.012C1848.64 192.855 1847.62 194.074 1846.91 195.668C1846.19 197.23 1845.83 199.121 1845.83 201.34V221.262C1845.83 226.762 1843.33 229.512 1838.33 229.512C1835.89 229.512 1834.02 228.808 1832.7 227.402C1831.42 225.965 1830.78 223.918 1830.78 221.262V186.527C1830.78 184.058 1831.44 182.121 1832.75 180.715C1834.06 179.277 1835.86 178.558 1838.14 178.558C1842.77 178.558 1845.19 180.98 1845.41 185.824V187.652H1846.16C1846.78 185.746 1847.8 184.09 1849.2 182.683C1850.61 181.277 1852.31 180.183 1854.31 179.402C1856.31 178.621 1858.5 178.23 1860.88 178.23C1866.16 178.23 1870.23 179.777 1873.11 182.871C1875.98 185.933 1877.42 190.293 1877.42 195.949V221.308ZM1886.09 206.637V200.683C1886.09 196.152 1887 192.168 1888.81 188.73C1890.66 185.293 1893.34 182.605 1896.88 180.668C1900.41 178.73 1904.69 177.762 1909.72 177.762C1912.53 177.762 1915.22 178.105 1917.78 178.793C1920.34 179.48 1922.58 180.48 1924.48 181.793C1925.95 182.824 1927.17 184.027 1928.14 185.402C1929.11 186.746 1929.59 188.183 1929.59 189.715C1929.59 191.371 1929.06 192.777 1928 193.933C1926.94 195.058 1925.52 195.621 1923.73 195.621C1922.48 195.621 1921.44 195.34 1920.59 194.777C1919.78 194.215 1919 193.637 1918.25 193.043C1917.59 192.355 1916.89 191.777 1916.14 191.308C1915.39 190.808 1914.56 190.433 1913.66 190.183C1912.78 189.902 1911.8 189.762 1910.7 189.762C1907.64 189.762 1905.36 190.84 1903.86 192.996C1902.36 195.121 1901.61 197.949 1901.61 201.48V205.887C1901.61 209.605 1902.28 212.605 1903.62 214.887C1905 217.137 1907.41 218.262 1910.84 218.262C1911.94 218.262 1912.95 218.121 1913.89 217.84C1914.83 217.558 1915.7 217.168 1916.52 216.668C1917.33 216.137 1918.09 215.512 1918.81 214.793C1919.53 214.23 1920.28 213.683 1921.06 213.152C1921.84 212.621 1922.86 212.355 1924.11 212.355C1925.83 212.355 1927.19 212.871 1928.19 213.902C1929.22 214.933 1929.73 216.324 1929.73 218.074C1929.73 219.637 1929.2 221.183 1928.14 222.715C1927.08 224.215 1925.64 225.527 1923.83 226.652C1921.95 227.808 1919.81 228.699 1917.41 229.324C1915 229.949 1912.44 230.262 1909.72 230.262C1902.41 230.262 1896.64 228.215 1892.42 224.121C1888.2 220.027 1886.09 214.199 1886.09 206.637ZM1937.23 206.824V201.293C1937.23 196.574 1938.2 192.465 1940.14 188.965C1942.11 185.433 1944.86 182.683 1948.39 180.715C1951.92 178.746 1956.03 177.762 1960.72 177.762C1965.16 177.762 1969.06 178.715 1972.44 180.621C1975.84 182.496 1978.52 185.074 1980.45 188.355C1982.39 191.605 1983.36 195.308 1983.36 199.465C1983.36 202.308 1982.8 204.324 1981.67 205.512C1980.58 206.668 1978.67 207.246 1975.95 207.246H1952.56V209.074C1952.59 212.043 1953.55 214.433 1955.42 216.246C1957.3 218.058 1959.92 218.965 1963.3 218.965C1964.2 218.965 1965.03 218.918 1965.78 218.824C1966.56 218.73 1967.27 218.59 1967.89 218.402C1968.55 218.183 1969.16 217.949 1969.72 217.699C1970.28 217.449 1970.8 217.137 1971.27 216.762C1972.42 216.043 1973.36 215.48 1974.08 215.074C1974.8 214.637 1975.73 214.418 1976.89 214.418C1978.42 214.418 1979.64 214.887 1980.55 215.824C1981.48 216.73 1981.95 217.98 1981.95 219.574C1981.95 220.918 1981.55 222.168 1980.73 223.324C1979.95 224.449 1978.86 225.465 1977.45 226.371C1975.73 227.59 1973.56 228.543 1970.94 229.23C1968.31 229.918 1965.41 230.262 1962.22 230.262C1954.5 230.262 1948.41 228.183 1943.94 224.027C1939.47 219.871 1937.23 214.137 1937.23 206.824ZM1952.56 198.621H1969.16V198.48C1969.16 195.605 1968.42 193.308 1966.95 191.59C1965.48 189.871 1963.52 189.012 1961.05 189.012C1958.39 189.012 1956.31 189.887 1954.81 191.637C1953.31 193.355 1952.56 195.637 1952.56 198.48V198.621ZM2010.69 166.183C2010.69 164.058 2011.45 162.308 2012.98 160.933C2014.52 159.558 2016.45 158.871 2018.8 158.871C2021.17 158.871 2023.11 159.558 2024.61 160.933C2026.14 162.308 2026.91 164.058 2026.91 166.183C2026.91 168.34 2026.14 170.105 2024.61 171.48C2023.11 172.855 2021.17 173.543 2018.8 173.543C2016.45 173.543 2014.52 172.855 2012.98 171.48C2011.45 170.105 2010.69 168.34 2010.69 166.183ZM2026.34 221.262C2026.34 223.949 2025.69 225.996 2024.38 227.402C2023.06 228.808 2021.2 229.512 2018.8 229.512C2016.42 229.512 2014.58 228.808 2013.27 227.402C2011.95 225.996 2011.3 223.949 2011.3 221.262V186.808C2011.3 184.121 2011.95 182.074 2013.27 180.668C2014.58 179.262 2016.42 178.558 2018.8 178.558C2021.2 178.558 2023.06 179.262 2024.38 180.668C2025.69 182.074 2026.34 184.121 2026.34 186.808V221.262ZM2084.23 221.308C2084.23 226.777 2081.72 229.512 2076.69 229.512C2071.66 229.512 2069.14 226.762 2069.14 221.262V199.887C2069.14 197.012 2068.45 194.762 2067.08 193.137C2065.73 191.512 2063.83 190.699 2061.36 190.699C2059.61 190.699 2058.08 191.137 2056.77 192.012C2055.45 192.855 2054.44 194.074 2053.72 195.668C2053 197.23 2052.64 199.121 2052.64 201.34V221.262C2052.64 226.762 2050.14 229.512 2045.14 229.512C2042.7 229.512 2040.83 228.808 2039.52 227.402C2038.23 225.965 2037.59 223.918 2037.59 221.262V186.527C2037.59 184.058 2038.25 182.121 2039.56 180.715C2040.88 179.277 2042.67 178.558 2044.95 178.558C2049.58 178.558 2052 180.98 2052.22 185.824V187.652H2052.97C2053.59 185.746 2054.61 184.09 2056.02 182.683C2057.42 181.277 2059.12 180.183 2061.12 179.402C2063.12 178.621 2065.31 178.23 2067.69 178.23C2072.97 178.23 2077.05 179.777 2079.92 182.871C2082.8 185.933 2084.23 190.293 2084.23 195.949V221.308ZM2122.06 229.512C2119.56 229.512 2117.62 228.793 2116.25 227.355C2114.91 225.887 2114.23 223.824 2114.23 221.168V172.933C2114.23 170.246 2114.91 168.183 2116.25 166.746C2117.59 165.308 2119.5 164.59 2121.97 164.59C2124.44 164.59 2126.34 165.324 2127.69 166.793C2129.06 168.23 2129.75 170.277 2129.75 172.933V221.168C2129.75 223.824 2129.08 225.887 2127.73 227.355C2126.42 228.793 2124.53 229.512 2122.06 229.512ZM2187.92 221.308C2187.92 226.777 2185.41 229.512 2180.38 229.512C2175.34 229.512 2172.83 226.762 2172.83 221.262V199.887C2172.83 197.012 2172.14 194.762 2170.77 193.137C2169.42 191.512 2167.52 190.699 2165.05 190.699C2163.3 190.699 2161.77 191.137 2160.45 192.012C2159.14 192.855 2158.12 194.074 2157.41 195.668C2156.69 197.23 2156.33 199.121 2156.33 201.34V221.262C2156.33 226.762 2153.83 229.512 2148.83 229.512C2146.39 229.512 2144.52 228.808 2143.2 227.402C2141.92 225.965 2141.28 223.918 2141.28 221.262V186.527C2141.28 184.058 2141.94 182.121 2143.25 180.715C2144.56 179.277 2146.36 178.558 2148.64 178.558C2153.27 178.558 2155.69 180.98 2155.91 185.824V187.652H2156.66C2157.28 185.746 2158.3 184.09 2159.7 182.683C2161.11 181.277 2162.81 180.183 2164.81 179.402C2166.81 178.621 2169 178.23 2171.38 178.23C2176.66 178.23 2180.73 179.777 2183.61 182.871C2186.48 185.933 2187.92 190.293 2187.92 195.949V221.308ZM2212.16 206.074C2212.16 208.574 2212.5 210.715 2213.19 212.496C2213.91 214.277 2214.92 215.637 2216.23 216.574C2217.55 217.512 2219.12 217.98 2220.97 217.98C2222.81 217.98 2224.39 217.527 2225.7 216.621C2227.05 215.683 2228.08 214.34 2228.8 212.59C2229.55 210.84 2229.92 208.762 2229.92 206.355V201.152C2229.92 198.871 2229.55 196.902 2228.8 195.246C2228.05 193.558 2226.98 192.246 2225.61 191.308C2224.27 190.371 2222.69 189.902 2220.88 189.902C2219.03 189.902 2217.45 190.387 2216.14 191.355C2214.86 192.293 2213.88 193.652 2213.19 195.433C2212.5 197.183 2212.16 199.308 2212.16 201.808V206.074ZM2229.31 221.027C2228.88 222.34 2228.22 223.527 2227.34 224.59C2226.47 225.621 2225.39 226.527 2224.11 227.308C2222.86 228.058 2221.45 228.637 2219.89 229.043C2218.36 229.418 2216.72 229.605 2214.97 229.605C2211.19 229.605 2207.92 228.699 2205.17 226.887C2202.42 225.074 2200.3 222.48 2198.8 219.105C2197.33 215.699 2196.59 211.668 2196.59 207.012V200.777C2196.59 196.09 2197.33 192.074 2198.8 188.73C2200.3 185.355 2202.42 182.762 2205.17 180.949C2207.95 179.137 2211.23 178.23 2215.02 178.23C2217.33 178.23 2219.44 178.574 2221.34 179.262C2223.25 179.918 2224.88 180.871 2226.22 182.121C2227.56 183.34 2228.55 184.793 2229.17 186.48H2229.92V169.558C2229.92 164.027 2232.42 161.262 2237.42 161.262C2242.45 161.262 2244.97 164.027 2244.97 169.558V221.262C2244.97 226.762 2242.48 229.512 2237.52 229.512C2235.33 229.512 2233.58 228.902 2232.27 227.683C2230.98 226.433 2230.25 224.683 2230.06 222.433V221.027H2229.31ZM2256.03 166.183C2256.03 164.058 2256.8 162.308 2258.33 160.933C2259.86 159.558 2261.8 158.871 2264.14 158.871C2266.52 158.871 2268.45 159.558 2269.95 160.933C2271.48 162.308 2272.25 164.058 2272.25 166.183C2272.25 168.34 2271.48 170.105 2269.95 171.48C2268.45 172.855 2266.52 173.543 2264.14 173.543C2261.8 173.543 2259.86 172.855 2258.33 171.48C2256.8 170.105 2256.03 168.34 2256.03 166.183ZM2271.69 221.262C2271.69 223.949 2271.03 225.996 2269.72 227.402C2268.41 228.808 2266.55 229.512 2264.14 229.512C2261.77 229.512 2259.92 228.808 2258.61 227.402C2257.3 225.996 2256.64 223.949 2256.64 221.262V186.808C2256.64 184.121 2257.3 182.074 2258.61 180.668C2259.92 179.262 2261.77 178.558 2264.14 178.558C2266.55 178.558 2268.41 179.262 2269.72 180.668C2271.03 182.074 2271.69 184.121 2271.69 186.808V221.262ZM2295.45 213.387C2295.45 215.137 2296.09 216.574 2297.38 217.699C2298.69 218.793 2300.36 219.34 2302.39 219.34C2303.86 219.34 2305.19 219.043 2306.38 218.449C2307.56 217.855 2308.5 217.043 2309.19 216.012C2309.91 214.98 2310.27 213.84 2310.27 212.59V207.715H2302.58C2300.39 207.715 2298.66 208.215 2297.38 209.215C2296.09 210.215 2295.45 211.605 2295.45 213.387ZM2310.22 222.902C2309.44 224.308 2308.39 225.512 2307.08 226.512C2305.8 227.512 2304.3 228.277 2302.58 228.808C2300.89 229.34 2299.05 229.605 2297.05 229.605C2292.17 229.605 2288.22 228.215 2285.19 225.433C2282.16 222.652 2280.64 218.996 2280.64 214.465C2280.64 209.777 2282.28 206.105 2285.56 203.449C2288.88 200.762 2293.42 199.402 2299.2 199.371H2310.27V195.762C2310.27 193.637 2309.61 192.027 2308.3 190.933C2306.98 189.84 2305.12 189.293 2302.72 189.293C2301 189.293 2299.45 189.605 2298.08 190.23C2296.73 190.855 2295.39 191.652 2294.05 192.621C2293.3 193.121 2292.5 193.512 2291.66 193.793C2290.81 194.043 2289.8 194.168 2288.61 194.168C2287.02 194.168 2285.75 193.683 2284.81 192.715C2283.88 191.746 2283.41 190.543 2283.41 189.105C2283.41 187.574 2283.94 186.09 2285 184.652C2286.09 183.183 2287.8 181.902 2290.11 180.808C2291.77 179.996 2293.72 179.371 2295.97 178.933C2298.22 178.465 2300.8 178.23 2303.7 178.23C2310.61 178.23 2315.94 179.777 2319.69 182.871C2323.44 185.933 2325.31 190.293 2325.31 195.949V221.543C2325.31 224.105 2324.67 226.074 2323.39 227.449C2322.14 228.824 2320.34 229.512 2318 229.512C2316.09 229.512 2314.5 229.027 2313.22 228.058C2311.97 227.09 2311.2 225.699 2310.92 223.887V222.902C2310.89 222.902 2310.77 222.902 2310.55 222.902C2310.33 222.902 2310.22 222.902 2310.22 222.902Z" fill="black"/>
<path d="M1058.98 219.105C1058.98 217.543 1059.48 216.293 1060.48 215.355C1061.52 214.387 1062.84 213.902 1064.47 213.902C1065.34 213.902 1066.19 214.074 1067 214.418C1067.81 214.73 1068.83 215.262 1070.05 216.012C1072.05 217.262 1073.84 218.168 1075.44 218.73C1077.03 219.262 1078.69 219.527 1080.41 219.527C1081.84 219.527 1083.08 219.355 1084.11 219.012C1085.14 218.637 1085.94 218.105 1086.5 217.418C1087.06 216.73 1087.34 215.933 1087.34 215.027C1087.34 214.183 1087.11 213.433 1086.64 212.777C1086.17 212.121 1085.44 211.543 1084.44 211.043C1083.47 210.543 1082.22 210.121 1080.69 209.777L1073.7 208.277C1068.86 207.246 1065.3 205.558 1063.02 203.215C1060.77 200.871 1059.64 197.793 1059.64 193.98C1059.64 190.73 1060.52 187.902 1062.27 185.496C1064.05 183.058 1066.55 181.168 1069.77 179.824C1072.98 178.449 1076.77 177.762 1081.11 177.762C1083.45 177.762 1085.7 177.98 1087.86 178.418C1090.05 178.855 1092.03 179.512 1093.81 180.387C1095.84 181.324 1097.39 182.465 1098.45 183.808C1099.55 185.152 1100.09 186.605 1100.09 188.168C1100.09 189.699 1099.58 190.918 1098.55 191.824C1097.55 192.699 1096.23 193.137 1094.61 193.137C1093.86 193.137 1093.05 193.012 1092.17 192.762C1091.33 192.48 1090.27 191.98 1088.98 191.262C1087.11 190.168 1085.52 189.418 1084.2 189.012C1082.89 188.574 1081.59 188.355 1080.31 188.355C1078.34 188.355 1076.8 188.793 1075.67 189.668C1074.58 190.543 1074.03 191.683 1074.03 193.09C1074.03 194.308 1074.48 195.277 1075.39 195.996C1076.3 196.715 1077.7 197.277 1079.61 197.683L1088.42 199.465C1091.45 200.09 1093.94 201.027 1095.88 202.277C1097.84 203.527 1099.31 205.105 1100.28 207.012C1101.25 208.887 1101.73 211.105 1101.73 213.668C1101.73 217.074 1100.84 220.027 1099.06 222.527C1097.31 224.996 1094.78 226.902 1091.47 228.246C1088.19 229.59 1084.22 230.262 1079.56 230.262C1076.75 230.262 1074.09 229.996 1071.59 229.465C1069.12 228.933 1066.95 228.199 1065.08 227.262C1063.11 226.262 1061.59 225.058 1060.53 223.652C1059.5 222.246 1058.98 220.73 1058.98 219.105ZM1157.47 221.262C1157.47 223.918 1156.81 225.965 1155.5 227.402C1154.22 228.808 1152.38 229.512 1149.97 229.512C1147.53 229.512 1145.66 228.808 1144.34 227.402C1143.06 225.965 1142.42 223.918 1142.42 221.262V199.933C1142.42 196.996 1141.72 194.73 1140.31 193.137C1138.94 191.512 1137 190.699 1134.5 190.699C1132.72 190.699 1131.17 191.137 1129.86 192.012C1128.55 192.887 1127.52 194.121 1126.77 195.715C1126.05 197.277 1125.69 199.152 1125.69 201.34V221.262C1125.69 223.918 1125.03 225.965 1123.72 227.402C1122.44 228.808 1120.59 229.512 1118.19 229.512C1113.16 229.512 1110.64 226.762 1110.64 221.262V169.558C1110.64 166.871 1111.28 164.824 1112.56 163.418C1113.88 161.98 1115.75 161.262 1118.19 161.262C1123.19 161.262 1125.69 164.027 1125.69 169.558V187.652H1126.44C1127.28 184.871 1129.05 182.605 1131.73 180.855C1134.45 179.105 1137.53 178.23 1140.97 178.23C1146.19 178.23 1150.23 179.793 1153.11 182.918C1156.02 186.043 1157.47 190.402 1157.47 195.996V221.262ZM1189.77 177.762C1194.58 177.762 1198.78 178.715 1202.38 180.621C1206 182.527 1208.81 185.246 1210.81 188.777C1212.81 192.308 1213.81 196.512 1213.81 201.387V206.262C1213.81 211.355 1212.81 215.699 1210.81 219.293C1208.81 222.855 1206 225.574 1202.38 227.449C1198.78 229.324 1194.58 230.262 1189.77 230.262C1184.95 230.262 1180.73 229.324 1177.11 227.449C1173.48 225.574 1170.67 222.855 1168.67 219.293C1166.67 215.73 1165.67 211.402 1165.67 206.308V201.48C1165.67 196.574 1166.67 192.355 1168.67 188.824C1170.67 185.262 1173.48 182.527 1177.11 180.621C1180.73 178.715 1184.95 177.762 1189.77 177.762ZM1189.77 189.012C1187.98 189.012 1186.45 189.512 1185.17 190.512C1183.89 191.48 1182.91 192.887 1182.22 194.73C1181.53 196.543 1181.19 198.762 1181.19 201.387V206.59C1181.19 210.496 1181.95 213.543 1183.48 215.73C1185.02 217.918 1187.11 219.012 1189.77 219.012C1191.55 219.012 1193.06 218.527 1194.31 217.558C1195.59 216.558 1196.56 215.137 1197.22 213.293C1197.91 211.418 1198.25 209.183 1198.25 206.59V201.387C1198.25 198.762 1197.91 196.543 1197.22 194.73C1196.56 192.887 1195.59 191.48 1194.31 190.512C1193.06 189.512 1191.55 189.012 1189.77 189.012ZM1237.39 206.683C1237.39 208.965 1237.77 210.949 1238.52 212.637C1239.27 214.324 1240.31 215.637 1241.66 216.574C1243 217.48 1244.58 217.933 1246.39 217.933C1248.23 217.933 1249.81 217.465 1251.12 216.527C1252.44 215.558 1253.44 214.183 1254.12 212.402C1254.81 210.59 1255.16 208.418 1255.16 205.887V201.949C1255.16 199.387 1254.81 197.215 1254.12 195.433C1253.44 193.652 1252.42 192.293 1251.08 191.355C1249.77 190.387 1248.17 189.902 1246.3 189.902C1244.45 189.902 1242.86 190.371 1241.52 191.308C1240.2 192.215 1239.19 193.527 1238.47 195.246C1237.75 196.965 1237.39 199.043 1237.39 201.48V206.683ZM1237.39 238.277C1237.39 243.777 1234.89 246.527 1229.89 246.527C1224.89 246.527 1222.39 243.777 1222.39 238.277V186.808C1222.39 181.308 1224.86 178.558 1229.8 178.558C1234.42 178.558 1236.92 180.871 1237.3 185.496C1237.3 185.746 1237.3 185.996 1237.3 186.246C1237.3 186.465 1237.3 186.683 1237.3 186.902H1238.05C1238.55 185.59 1239.25 184.402 1240.16 183.34C1241.06 182.277 1242.12 181.371 1243.34 180.621C1244.59 179.84 1245.97 179.246 1247.47 178.84C1249 178.433 1250.62 178.23 1252.34 178.23C1256.22 178.23 1259.52 179.137 1262.23 180.949C1264.95 182.73 1267.03 185.324 1268.47 188.73C1269.94 192.105 1270.67 196.183 1270.67 200.965V206.73C1270.67 211.543 1269.94 215.652 1268.47 219.058C1267 222.465 1264.89 225.074 1262.14 226.887C1259.39 228.699 1256.09 229.605 1252.25 229.605C1250 229.605 1247.94 229.277 1246.06 228.621C1244.19 227.965 1242.58 227.012 1241.23 225.762C1239.89 224.512 1238.86 222.996 1238.14 221.215H1237.39V238.277ZM1294.77 206.683C1294.77 208.965 1295.14 210.949 1295.89 212.637C1296.64 214.324 1297.69 215.637 1299.03 216.574C1300.38 217.48 1301.95 217.933 1303.77 217.933C1305.61 217.933 1307.19 217.465 1308.5 216.527C1309.81 215.558 1310.81 214.183 1311.5 212.402C1312.19 210.59 1312.53 208.418 1312.53 205.887V201.949C1312.53 199.387 1312.19 197.215 1311.5 195.433C1310.81 193.652 1309.8 192.293 1308.45 191.355C1307.14 190.387 1305.55 189.902 1303.67 189.902C1301.83 189.902 1300.23 190.371 1298.89 191.308C1297.58 192.215 1296.56 193.527 1295.84 195.246C1295.12 196.965 1294.77 199.043 1294.77 201.48V206.683ZM1294.77 238.277C1294.77 243.777 1292.27 246.527 1287.27 246.527C1282.27 246.527 1279.77 243.777 1279.77 238.277V186.808C1279.77 181.308 1282.23 178.558 1287.17 178.558C1291.8 178.558 1294.3 180.871 1294.67 185.496C1294.67 185.746 1294.67 185.996 1294.67 186.246C1294.67 186.465 1294.67 186.683 1294.67 186.902H1295.42C1295.92 185.59 1296.62 184.402 1297.53 183.34C1298.44 182.277 1299.5 181.371 1300.72 180.621C1301.97 179.84 1303.34 179.246 1304.84 178.84C1306.38 178.433 1308 178.23 1309.72 178.23C1313.59 178.23 1316.89 179.137 1319.61 180.949C1322.33 182.73 1324.41 185.324 1325.84 188.73C1327.31 192.105 1328.05 196.183 1328.05 200.965V206.73C1328.05 211.543 1327.31 215.652 1325.84 219.058C1324.38 222.465 1322.27 225.074 1319.52 226.887C1316.77 228.699 1313.47 229.605 1309.62 229.605C1307.38 229.605 1305.31 229.277 1303.44 228.621C1301.56 227.965 1299.95 227.012 1298.61 225.762C1297.27 224.512 1296.23 222.996 1295.52 221.215H1294.77V238.277ZM1337 166.183C1337 164.058 1337.77 162.308 1339.3 160.933C1340.83 159.558 1342.77 158.871 1345.11 158.871C1347.48 158.871 1349.42 159.558 1350.92 160.933C1352.45 162.308 1353.22 164.058 1353.22 166.183C1353.22 168.34 1352.45 170.105 1350.92 171.48C1349.42 172.855 1347.48 173.543 1345.11 173.543C1342.77 173.543 1340.83 172.855 1339.3 171.48C1337.77 170.105 1337 168.34 1337 166.183ZM1352.66 221.262C1352.66 223.949 1352 225.996 1350.69 227.402C1349.38 228.808 1347.52 229.512 1345.11 229.512C1342.73 229.512 1340.89 228.808 1339.58 227.402C1338.27 225.996 1337.61 223.949 1337.61 221.262V186.808C1337.61 184.121 1338.27 182.074 1339.58 180.668C1340.89 179.262 1342.73 178.558 1345.11 178.558C1347.52 178.558 1349.38 179.262 1350.69 180.668C1352 182.074 1352.66 184.121 1352.66 186.808V221.262ZM1410.55 221.308C1410.55 226.777 1408.03 229.512 1403 229.512C1397.97 229.512 1395.45 226.762 1395.45 221.262V199.887C1395.45 197.012 1394.77 194.762 1393.39 193.137C1392.05 191.512 1390.14 190.699 1387.67 190.699C1385.92 190.699 1384.39 191.137 1383.08 192.012C1381.77 192.855 1380.75 194.074 1380.03 195.668C1379.31 197.23 1378.95 199.121 1378.95 201.34V221.262C1378.95 226.762 1376.45 229.512 1371.45 229.512C1369.02 229.512 1367.14 228.808 1365.83 227.402C1364.55 225.965 1363.91 223.918 1363.91 221.262V186.527C1363.91 184.058 1364.56 182.121 1365.88 180.715C1367.19 179.277 1368.98 178.558 1371.27 178.558C1375.89 178.558 1378.31 180.98 1378.53 185.824V187.652H1379.28C1379.91 185.746 1380.92 184.09 1382.33 182.683C1383.73 181.277 1385.44 180.183 1387.44 179.402C1389.44 178.621 1391.62 178.23 1394 178.23C1399.28 178.23 1403.36 179.777 1406.23 182.871C1409.11 185.933 1410.55 190.293 1410.55 195.949V221.308ZM1451.66 220.043C1451.19 221.199 1450.52 222.262 1449.64 223.23C1448.8 224.168 1447.77 224.996 1446.55 225.715C1445.36 226.402 1444.02 226.933 1442.52 227.308C1441.05 227.683 1439.45 227.871 1437.73 227.871C1434.02 227.871 1430.77 226.98 1427.98 225.199C1425.23 223.418 1423.09 220.824 1421.56 217.418C1420.03 213.98 1419.27 209.84 1419.27 204.996V201.152C1419.27 196.277 1420.03 192.137 1421.56 188.73C1423.09 185.324 1425.23 182.73 1427.98 180.949C1430.77 179.137 1434 178.23 1437.69 178.23C1440.09 178.23 1442.25 178.605 1444.16 179.355C1446.06 180.074 1447.67 181.058 1448.98 182.308C1450.3 183.558 1451.23 184.996 1451.8 186.621H1452.55V185.355C1452.7 183.043 1453.44 181.308 1454.75 180.152C1456.06 178.965 1457.78 178.371 1459.91 178.371C1462.28 178.371 1464.12 179.074 1465.44 180.48C1466.78 181.887 1467.45 183.933 1467.45 186.621V227.59C1467.45 231.996 1466.44 235.699 1464.41 238.699C1462.41 241.73 1459.56 244.012 1455.88 245.543C1452.19 247.074 1447.8 247.84 1442.7 247.84C1439.3 247.84 1436.25 247.574 1433.56 247.043C1430.88 246.512 1428.61 245.746 1426.77 244.746C1425.05 243.808 1423.7 242.668 1422.73 241.324C1421.77 239.98 1421.28 238.512 1421.28 236.918C1421.28 235.262 1421.83 233.918 1422.92 232.887C1424.02 231.887 1425.48 231.387 1427.33 231.387C1428.36 231.387 1429.25 231.558 1430 231.902C1430.78 232.277 1431.58 232.699 1432.39 233.168C1433.14 233.605 1433.98 234.058 1434.92 234.527C1435.86 234.996 1436.95 235.387 1438.2 235.699C1439.45 236.012 1440.92 236.168 1442.61 236.168C1445.95 236.168 1448.42 235.371 1450.02 233.777C1451.61 232.215 1452.41 229.746 1452.41 226.371V220.043H1451.66ZM1434.83 205.23C1434.83 207.637 1435.19 209.746 1435.91 211.558C1436.66 213.34 1437.7 214.715 1439.05 215.683C1440.39 216.652 1441.95 217.137 1443.73 217.137C1445.61 217.137 1447.19 216.652 1448.47 215.683C1449.75 214.683 1450.72 213.324 1451.38 211.605C1452.06 209.887 1452.41 207.949 1452.41 205.793V201.293C1452.41 199.074 1452.06 197.121 1451.38 195.433C1450.69 193.715 1449.69 192.371 1448.38 191.402C1447.09 190.402 1445.52 189.902 1443.64 189.902C1441.83 189.902 1440.27 190.387 1438.95 191.355C1437.64 192.324 1436.62 193.699 1435.91 195.48C1435.19 197.23 1434.83 199.34 1434.83 201.808V205.23Z" fill="#D60000"/>
</g>
<defs>
<clipPath id="clip0_2861_536">
<rect width="394" height="2498" fill="white" transform="matrix(0 1 -1 0 2498 0)"/>
</clipPath>
</defs>
</svg>
